<svg xmlns="http://www.w3.org/2000/svg" viewBox="0 0 1600 1000" role="img" aria-label="Retro arcade reactor ignition backdrop">
  <defs>
    <radialGradient id="core" cx="50%" cy="46%" r="58%">
      <stop offset="0%" stop-color="#ffe45c" stop-opacity=".95"/>
      <stop offset="16%" stop-color="#ff426d" stop-opacity=".72"/>
      <stop offset="38%" stop-color="#4f1a82" stop-opacity=".5"/>
      <stop offset="72%" stop-color="#07111e" stop-opacity=".88"/>
      <stop offset="100%" stop-color="#02040c"/>
    </radialGradient>
    <linearGradient id="grid" x1="0" y1="0" x2="1" y2="1">
      <stop offset="0%" stop-color="#41e8ff" stop-opacity=".42"/>
      <stop offset="50%" stop-color="#ff3df2" stop-opacity=".5"/>
      <stop offset="100%" stop-color="#ffe45c" stop-opacity=".28"/>
    </linearGradient>
  </defs>
  <rect width="1600" height="1000" fill="#02040c"/>
  <rect width="1600" height="1000" fill="url(#core)"/>
  <g fill="none" stroke="url(#grid)" stroke-width="3" opacity=".42">
    <path d="M0 850H1600M0 760H1600M0 670H1600M0 580H1600"/>
    <path d="M120 1000 760 120M330 1000 800 90M560 1000 835 90M1040 1000 765 90M1270 1000 800 90M1480 1000 840 120"/>
  </g>
  <g transform="translate(800 470)" fill="none" stroke-linecap="round">
    <circle r="280" stroke="#41e8ff" stroke-width="12" opacity=".55"/>
    <circle r="210" stroke="#ff3df2" stroke-width="8" opacity=".65"/>
    <circle r="132" stroke="#ffe45c" stroke-width="14" opacity=".72"/>
    <path d="M-380 0h760M0-380v760M-268-268 268 268M268-268-268 268" stroke="#ffffff" stroke-width="5" opacity=".18"/>
  </g>
  <g opacity=".9">
    <path d="M90 160h420l-70 78H154z" fill="#41e8ff" opacity=".16"/>
    <path d="M1090 118h390l-62 72h-286z" fill="#ff3df2" opacity=".18"/>
    <path d="M150 820h300l-52 62H205z" fill="#ffe45c" opacity=".18"/>
    <path d="M1150 790h330l-58 68h-214z" fill="#41e8ff" opacity=".16"/>
  </g>
  <g fill="#ffffff" opacity=".4">
    <circle cx="250" cy="250" r="3"/><circle cx="410" cy="130" r="2"/><circle cx="1270" cy="260" r="3"/>
    <circle cx="1390" cy="430" r="2"/><circle cx="220" cy="650" r="2"/><circle cx="980" cy="150" r="2"/>
  </g>
</svg>
